<?xml version="1.0" encoding="UTF-8"?>
<svg id="Layer_1" data-name="Layer 1" xmlns="http://www.w3.org/2000/svg" viewBox="0 0 545.21 1070.12">
  <defs>
    <style>
      .cls-1 {
        stroke-dasharray: 10.01 8.01;
      }

      .cls-1, .cls-2, .cls-3, .cls-4 {
        fill: none;
        stroke: #000;
        stroke-miterlimit: 10;
        stroke-width: 4px;
      }

      .cls-3 {
        stroke-dasharray: 9.89 7.92;
      }

      .cls-4 {
        stroke-dasharray: 10.23 8.19;
      }

      .cls-5 {
        opacity: .5;
      }
    </style>
  </defs>
  <g class="cls-5">
    <path class="cls-2" d="M224.58,550.61c-2.61.77-3.9,1.16-6.44,2"/>
    <path class="cls-3" d="M208.35,556.11c-52.21,22.58-95.3,65.59-94.34,125.9.97,60.79,46.04,102.6,99.17,123.91"/>
    <path class="cls-2" d="M218.15,807.62c2.54.83,3.82,1.23,6.44,2"/>
  </g>
  <g class="cls-5">
    <path class="cls-2" d="M231.54,548.52c3.07-.45,4.59-.69,7.59-1.2"/>
    <path class="cls-1" d="M250.91,545.14c58.86-13.62,136.08-46.63,139.45-117.52,3.4-71.47-71.08-113.07-128.58-133.51"/>
    <path class="cls-2" d="M256.03,292.28c-2.91-.9-4.38-1.33-7.37-2.19"/>
  </g>
  <g class="cls-5">
    <path class="cls-2" d="M224.36,1.79c-2.13,1.06-3.17,1.61-5.22,2.74"/>
    <path class="cls-4" d="M211,9.45c-92.66,67.82-80.79,221.82,22.44,273.14"/>
    <path class="cls-2" d="M237.85,284.41c2.18.85,3.29,1.26,5.54,2.02"/>
  </g>
  <g class="cls-5">
    <path class="cls-2" d="M218.14,1068.16c3.04-.66,4.54-1,7.5-1.7"/>
    <path class="cls-1" d="M237.24,1063.48c57.8-17.55,132.62-55.7,131.21-126.65-1.43-71.54-78.54-108.02-137.28-124.54"/>
    <path class="cls-2" d="M225.29,810.85c-2.96-.7-4.46-1.04-7.5-1.68"/>
  </g>
</svg>